<svg width="160" height="90" viewBox="0 0 160 90" fill="none" xmlns="http://www.w3.org/2000/svg">
<path d="M63.5775 39.8575C63.5175 39.9075 63.4575 39.9575 63.4275 40.0075L49.6375 56.8275V25.9175L44.9675 21.2475V73.7075C44.9675 75.0175 46.0275 76.0175 47.3375 76.0175H99.7275L63.5775 39.8575Z" fill="black"/>
<path d="M102.358 18.6375V54.1575L98.9975 49.1075C97.8075 47.3075 95.7475 46.2475 93.6375 46.2475H93.5775C91.4675 46.2475 89.4675 47.3075 88.2175 49.1775L87.9175 49.6275L107.028 68.7375V16.2775C107.028 15.0275 106.038 13.9675 104.718 13.9675H52.2575L56.9275 18.6375H102.358Z" fill="black"/>
<path d="M89.6532 35.9494C91.9339 33.6688 91.9339 29.9711 89.6532 27.6905C87.3726 25.4099 83.6749 25.4099 81.3943 27.6905C79.1137 29.9711 79.1137 33.6688 81.3943 35.9494C83.6749 38.2301 87.3726 38.2301 89.6532 35.9494Z" fill="black"/>
<path d="M111.597 84.2375C112.097 84.7375 112.757 84.9975 113.417 84.9975C114.077 84.9975 114.737 84.7475 115.237 84.2375C116.247 83.2275 116.247 81.5975 115.237 80.5975L40.3975 5.7575C39.3875 4.7475 37.7575 4.7475 36.7575 5.7575C35.7475 6.7675 35.7475 8.3975 36.7575 9.3975L111.597 84.2375Z" fill="black"/>
</svg>
