<svg version="1.1" id="Layer_1" xmlns="http://www.w3.org/2000/svg" xmlns:xlink="http://www.w3.org/1999/xlink" x="0px" y="0px"
	 width="100%" viewBox="0 0 1024 1024" enable-background="new 0 0 1024 1024" xml:space="preserve">
	<path fill="currentColor" opacity="1.000000" stroke="none" 
	d="
M222.882233,737.000000 
	C222.875763,666.001770 222.870773,595.503601 222.861511,525.005371 
	C222.860199,514.961365 221.280319,512.989258 211.444580,510.672668 
	C206.587708,509.528778 201.712814,508.456329 196.876144,507.232727 
	C184.564011,504.117981 176.752380,494.181427 176.708450,481.397675 
	C176.638580,461.065033 176.664688,440.731964 176.696426,420.399109 
	C176.715424,408.222382 184.101410,399.147034 195.999176,396.552765 
	C234.791992,388.094086 273.591370,379.665222 312.369049,371.137817 
	C316.219849,370.291077 319.272003,370.577271 322.389252,373.478729 
	C336.590057,386.696594 353.043884,396.311066 371.171661,403.129852 
	C372.051788,403.460907 372.809326,404.117828 373.571411,404.590424 
	C373.138824,406.760223 371.473206,406.142792 370.325134,406.451630 
	C352.981018,411.116791 335.624786,415.737030 318.284851,420.417603 
	C310.303589,422.572021 308.344177,425.131744 308.309113,433.574310 
	C308.241302,449.906921 308.224213,466.239990 308.254608,482.572723 
	C308.269226,490.440674 310.725037,493.650330 318.477631,495.659271 
	C343.590210,502.166718 368.720245,508.607239 393.858551,515.014526 
	C400.353546,516.669983 403.750458,513.829163 403.531616,507.101440 
	C403.390869,502.774475 403.070251,498.451691 403.004852,494.124390 
	C402.934509,489.466034 400.649506,486.548065 396.273193,485.402435 
	C392.745819,484.479004 389.098480,484.023041 385.547913,483.177002 
	C378.700256,481.545319 375.755676,477.812927 375.667480,470.754272 
	C375.604980,465.755157 375.633118,460.754578 375.652466,455.754791 
	C375.684021,447.599945 378.323608,443.801453 386.259949,441.655457 
	C404.877106,436.621368 423.546600,431.779327 442.211182,426.922180 
	C461.521759,421.896851 480.872284,417.023529 500.159882,411.912140 
	C505.634735,410.461273 510.941956,410.347961 516.393860,411.788910 
	C552.733704,421.393768 589.086731,430.948273 625.432007,440.532623 
	C628.651917,441.381744 631.857788,442.294891 634.652344,444.225677 
	C637.383301,446.112457 639.593750,448.755219 639.881042,451.877350 
	C640.596130,459.649750 640.939331,467.507294 639.533081,475.255707 
	C638.814026,479.217682 636.099792,481.621429 632.186523,482.571777 
	C628.150085,483.552094 624.073486,484.377899 620.064453,485.457184 
	C615.893127,486.580109 613.541443,489.438354 613.409058,493.767456 
	C613.256348,498.762634 613.198853,503.773254 613.414368,508.763580 
	C613.629395,513.744507 616.510925,516.036621 621.278198,514.826965 
	C640.932556,509.839905 660.541138,504.672791 680.171021,499.589264 
	C686.606934,497.922577 693.071533,496.365143 699.495239,494.653534 
	C705.274719,493.113586 707.756653,489.825745 707.755432,483.813934 
	C707.752075,466.814545 707.733887,449.815063 707.670471,432.815796 
	C707.644470,425.846466 705.278992,422.965698 698.469116,421.241211 
	C682.998169,417.323578 667.529297,413.397797 652.064209,409.457001 
	C651.174683,409.230316 649.984680,409.511627 649.555359,408.077332 
	C650.456299,406.010651 652.748352,406.044800 654.432251,405.242065 
	C671.818909,396.953949 688.238281,387.197388 702.292603,373.854919 
	C704.265930,371.981567 706.142517,371.045807 708.962036,371.675415 
	C745.952637,379.935883 782.978333,388.039795 819.955322,396.360138 
	C832.535706,399.190887 839.647888,407.026825 839.815552,419.824249 
	C840.099304,441.470459 840.838562,463.151154 839.320374,484.780396 
	C838.527222,496.079712 831.658447,503.756073 820.570007,506.599518 
	C815.258240,507.961609 809.894897,509.122162 804.555664,510.377350 
	C796.412842,512.291687 794.327515,514.976135 794.326660,523.723206 
	C794.318176,607.054688 794.300110,690.386108 794.359192,773.717590 
	C794.363647,779.977478 793.774475,786.021790 790.804626,791.623413 
	C787.013672,798.773804 781.121887,803.462219 773.388611,805.634399 
	C752.244690,811.573303 731.060669,817.369263 709.896240,823.235474 
	C649.287170,840.034546 588.637451,856.689331 528.102478,873.751465 
	C513.263306,877.933960 499.095612,876.959595 484.457703,872.856323 
	C436.258881,859.344971 387.912842,846.359619 339.645233,833.092712 
	C308.851624,824.628845 278.076111,816.097473 247.332489,807.454041 
	C230.393417,802.691650 222.914719,792.598206 222.876175,774.995911 
	C222.848816,762.497314 222.878250,749.998657 222.882233,737.000000 
M335.428040,659.499756 
	C335.439728,676.815857 335.213348,694.136230 335.519745,711.447144 
	C335.961945,736.428650 336.427490,761.405273 335.404907,786.379028 
	C335.051178,795.018799 337.499054,798.352539 346.009827,800.577454 
	C362.415894,804.866333 378.797119,809.250916 395.171753,813.658508 
	C401.483917,815.357605 402.998932,814.304871 402.993927,807.719666 
	C402.985596,796.723572 402.884033,785.727539 402.879883,774.731445 
	C402.853699,705.253845 402.844177,635.776306 402.827057,566.298706 
	C402.825287,559.132874 401.659882,556.685120 396.023560,555.215820 
	C378.175140,550.563171 360.252625,546.193176 342.341858,541.782532 
	C338.853912,540.923706 336.952362,542.824829 336.339722,546.068787 
	C336.033630,547.689453 336.084381,549.388245 336.073944,551.052368 
	C335.849121,586.868103 335.638580,622.683838 335.428040,659.499756 
M665.015869,543.609985 
	C651.329285,547.131714 637.635559,550.625854 623.958679,554.184814 
	C614.845642,556.556274 614.260925,557.300293 614.255676,566.878418 
	C614.229431,615.200195 614.238098,663.522034 614.230652,711.843811 
	C614.225769,743.336304 614.206604,774.828735 614.210510,806.321228 
	C614.211548,814.569702 615.020569,815.124329 622.741760,813.039490 
	C639.274597,808.575317 655.825134,804.176758 672.379089,799.791382 
	C678.802185,798.089844 680.656372,795.887451 680.583435,789.269104 
	C680.519287,783.442505 680.100952,777.618164 680.098450,771.792725 
	C680.075989,719.138611 680.068909,666.484497 680.149170,613.830505 
	C680.181396,592.684265 680.489197,571.538696 680.573853,550.392395 
	C680.603271,543.042297 677.755371,540.825012 670.678833,542.308289 
	C669.051636,542.649414 667.435608,543.043518 665.015869,543.609985 
z"/>
	<path fill="currentColor" opacity="1.000000" stroke="none" 
	d="
M531.885376,368.166199 
	C506.031616,347.748810 490.383820,322.017273 486.466248,289.236969 
	C479.598328,231.769974 515.518433,176.282898 572.797180,163.333817 
	C634.912842,149.291306 696.207886,185.518707 710.935913,248.974976 
	C726.117004,314.383453 683.123474,377.563110 616.850220,388.052094 
	C586.181335,392.906067 557.618958,386.891785 531.885376,368.166199 
M612.306152,306.807739 
	C623.201904,295.569275 634.261658,284.483795 644.936340,273.039154 
	C652.193054,265.258972 660.430908,258.314575 666.463379,249.478149 
	C670.769653,243.170135 669.309143,234.518661 663.729736,228.922791 
	C657.733276,222.908661 649.593933,221.640625 642.788635,225.536224 
	C637.760620,228.414429 634.224792,232.884369 630.298584,236.938110 
	C615.122742,252.606903 600.019714,268.346558 584.786072,283.958862 
	C580.144592,288.715759 577.854858,288.471008 573.125916,283.767670 
	C566.752991,277.429352 560.584290,270.840607 553.794128,264.977600 
	C544.150269,256.650452 528.980530,261.702423 525.214111,273.887756 
	C522.406433,282.971375 527.327942,288.787842 533.079407,294.427521 
	C543.423218,304.570190 554.248291,314.273651 563.989746,324.964722 
	C573.978210,335.926849 586.349243,335.034760 595.368225,324.763519 
	C600.638428,318.761627 606.317139,313.118347 612.306152,306.807739 
z"/>
	<path fill="currentColor" opacity="1.000000" stroke="none" 
	d="
M328.983429,335.965088 
	C315.114807,318.053192 308.527161,298.042786 308.713684,275.795654 
	C309.058350,234.682831 339.378967,199.532059 380.128174,193.886414 
	C413.728394,189.231232 441.221344,200.741364 462.512695,227.158600 
	C464.820099,230.021530 465.242950,232.441040 463.749329,236.142136 
	C453.005890,262.762787 452.477875,289.809662 461.135406,317.132172 
	C466.787109,334.968536 475.646088,351.044342 487.291321,365.629150 
	C493.105286,372.910706 491.493927,377.305481 482.105560,379.225861 
	C466.077637,382.504272 449.956085,383.518311 433.555542,382.526733 
	C414.463928,381.372498 395.996765,377.761383 378.063812,371.313538 
	C358.477814,364.271301 342.118164,352.636841 328.983429,335.965088 
M385.131683,323.332458 
	C407.392883,332.887726 430.654572,336.566681 454.468933,336.373718 
	C455.153015,333.834167 454.811829,332.547516 454.334015,331.299866 
	C450.520599,321.342346 448.018188,311.015015 445.467377,300.686005 
	C442.241272,287.622345 439.287842,274.456940 432.105408,262.742645 
	C424.333130,250.066315 413.778229,241.458054 398.857330,238.667633 
	C370.363434,233.338882 345.628784,259.926392 353.393768,287.839630 
	C358.022888,304.480042 369.289459,315.533752 385.131683,323.332458 
z"/>
</svg>